# xmcd
#
# Track frame offsets:
#	150
#	14819
#	27447
#	39019
#	56192
#	78197
#	92119
#	104820
#	113448
#	133028
#	171296
#	189227
#	207470
#	224262
#	241905
#
# Disc length: 3596
#
# Revision: 1
# Processed by: cddbd v1.5.1PL0 Copyright (c) Steve Scherf et al.
# Submitted via: CDex 1.51
# Normalized: r0:TDELIM( - )
#
DISCID=cf0e0a0f
DTITLE=Various Artist - Back To The Blues Vol. 2-CD2
DYEAR=1900
DGENRE=Blues
TTITLE0=Humble Pie - Growing Closer
TTITLE1=Etta James - Spoonful
TTITLE2=The Animals - Bring It On Home To Me
TTITLE3=Bobby McFerrin - You've Really Got A Hold On Me
TTITLE4=Luther 'Guitar Junior' Johnson and The Magic Rockers - I'm From Mississippi
TTITLE5=Charles Brown - Nobody Knows The Trouble I've Seen
TTITLE6=The Nylons - So Long
TTITLE7=Tony McPhee - When You Got A Good Friend
TTITLE8=Chris Hardy - Mica
TTITLE9=Ike and Tina Turner - I've Been Loving You To Long (Live-Verson)
TTITLE10=Lightnin' Hopkins - Want To Come Home
TTITLE11=Savoy Brown Blues Band - True Blue
TTITLE12=Screaming Jay Hawkins - Don't Deceive Me
TTITLE13=Little Feat - A Apolitical Blues
TTITLE14=Gary Moore - Still Got The Blues
EXTD=
EXTT0=
EXTT1=
EXTT2=
EXTT3=
EXTT4=
EXTT5=
EXTT6=
EXTT7=
EXTT8=
EXTT9=
EXTT10=
EXTT11=
EXTT12=
EXTT13=
EXTT14=
PLAYORDER=
